<svg width="512" height="512" viewBox="0 0 512 512" fill="none" xmlns="http://www.w3.org/2000/svg">
<g clip-path="url(#clip0_67_8136)">
<path d="M512 345.648V105.678C511.94 63.9393 478.071 30.7812 437.015 30.7812C436.971 30.7812 74.4291 31.2502 74.4291 31.2502C34.7901 31.3062 -0.063912 62.4692 8.80008e-05 106.366V346.337C0.055088 383.593 26.8451 413.086 60.1171 419.755L60.1901 466.249C60.1901 474.474 66.8921 481.22 75.1901 481.22H75.2191C95.2581 481.191 114.081 473.354 128.217 459.159C138.749 448.583 145.751 435.414 148.622 421.102L437.555 420.78C478.924 420.722 512.059 387.03 512 345.648ZM361 331.015H271V346.015C271 354.306 264.291 361.015 256 361.015C247.709 361.015 241 354.306 241 346.015V331.015H151C142.709 331.015 136 324.306 136 316.015C136 307.724 142.709 301.015 151 301.015C159.276 301.015 166 294.291 166 286.015V211.015C166 166.522 198.523 129.723 241 122.531V106.015C241 97.7243 247.709 91.0153 256 91.0153C264.291 91.0153 271 97.7243 271 106.015V122.531C313.477 129.723 346 166.522 346 211.015V286.015C346 294.291 352.724 301.015 361 301.015C369.291 301.015 376 307.724 376 316.015C376 324.306 369.291 331.015 361 331.015Z" fill="#F81B3E"/>
<path d="M316 211.016C316 177.925 289.091 151.016 256 151.016C222.909 151.016 196 177.925 196 211.016V286.016C196 291.3 194.918 296.301 193.237 301.016H318.763C317.082 296.301 316 291.3 316 286.016V211.016Z" fill="#F81B3E"/>
</g>
<defs>
<clipPath id="clip0_67_8136">
<rect width="512" height="512" fill="white"/>
</clipPath>
</defs>
</svg>
